<svg xmlns="http://www.w3.org/2000/svg" width="768" viewBox="0 0 768 768" height="768" version="1.0"><defs><clipPath id="a"><path d="M 262.695312 248 L 505.335938 248 L 505.335938 362.429688 L 262.695312 362.429688 Z M 262.695312 248"/></clipPath><clipPath id="b"><path d="M 262.695312 192 L 505.335938 192 L 505.335938 232.683594 L 262.695312 232.683594 Z M 262.695312 192"/></clipPath></defs><g clip-path="url(#a)"><path fill="#34D399" d="M 262.695312 248.867188 L 262.695312 319.730469 C 262.695312 342.050781 280.855469 362.25 303.136719 362.25 L 464.894531 362.25 C 487.203125 362.25 505.335938 342.050781 505.335938 319.730469 L 505.335938 248.867188 Z M 295.046875 281.257812 L 335.488281 281.257812 L 335.488281 289.363281 L 295.046875 289.363281 Z M 375.925781 313.65625 L 295.046875 313.65625 L 295.046875 297.457031 L 375.925781 297.457031 Z M 375.925781 313.65625"/></g><g clip-path="url(#b)"><path fill="#34D399" d="M 464.894531 192.179688 L 303.136719 192.179688 C 280.84375 192.179688 262.695312 208.371094 262.695312 232.671875 L 505.335938 232.671875 C 505.335938 208.371094 487.203125 192.179688 464.894531 192.179688 Z M 464.894531 192.179688"/></g><g fill="#34D399"><g><g><path d="M 58.953125 -28.3125 C 58.953125 -18.8125 56.617188 -11.585938 51.953125 -6.640625 C 47.296875 -1.703125 40.472656 0.765625 31.484375 0.765625 C 22.628906 0.765625 15.835938 -1.71875 11.109375 -6.6875 C 6.378906 -11.65625 4.015625 -18.890625 4.015625 -28.390625 C 4.015625 -37.796875 6.363281 -44.976562 11.0625 -49.9375 C 15.769531 -54.894531 22.601562 -57.375 31.5625 -57.375 C 40.550781 -57.375 47.363281 -54.910156 52 -49.984375 C 56.632812 -45.066406 58.953125 -37.84375 58.953125 -28.3125 Z M 20.09375 -28.3125 C 20.09375 -17.394531 23.890625 -11.9375 31.484375 -11.9375 C 35.347656 -11.9375 38.210938 -13.257812 40.078125 -15.90625 C 41.953125 -18.5625 42.890625 -22.695312 42.890625 -28.3125 C 42.890625 -33.957031 41.941406 -38.125 40.046875 -40.8125 C 38.148438 -43.507812 35.320312 -44.859375 31.5625 -44.859375 C 23.914062 -44.859375 20.09375 -39.34375 20.09375 -28.3125 Z M 20.09375 -28.3125" transform="translate(68.5 462.342)"/></g></g></g><g fill="#34D399"><g><g><path d="M 54.515625 0 L 39.171875 0 L 39.171875 -23.03125 L 21.4375 -23.03125 L 21.4375 0 L 6.109375 0 L 6.109375 -56.484375 L 21.4375 -56.484375 L 21.4375 -35.546875 L 39.171875 -35.546875 L 39.171875 -56.484375 L 54.515625 -56.484375 Z M 54.515625 0" transform="translate(131.525 462.342)"/></g></g></g><g fill="#34D399"><g><g><path d="M 6.109375 0 L 6.109375 -56.484375 L 21.4375 -56.484375 L 21.4375 0 Z M 6.109375 0" transform="translate(192.117 462.342)"/></g></g></g><g fill="#34D399"><g><g><path d="M 47.09375 -38.515625 C 47.09375 -32.203125 45.234375 -27.328125 41.515625 -23.890625 C 37.796875 -20.453125 32.507812 -18.734375 25.65625 -18.734375 L 21.359375 -18.734375 L 21.359375 0 L 6.109375 0 L 6.109375 -56.484375 L 25.65625 -56.484375 C 32.789062 -56.484375 38.144531 -54.925781 41.71875 -51.8125 C 45.300781 -48.695312 47.09375 -44.265625 47.09375 -38.515625 Z M 21.359375 -31.171875 L 24.140625 -31.171875 C 26.429688 -31.171875 28.253906 -31.816406 29.609375 -33.109375 C 30.960938 -34.398438 31.640625 -36.175781 31.640625 -38.4375 C 31.640625 -42.25 29.53125 -44.15625 25.3125 -44.15625 L 21.359375 -44.15625 Z M 21.359375 -31.171875" transform="translate(219.651 462.342)"/></g></g></g><g><g><g><path d="M 25.15625 0.765625 C 17.988281 0.765625 12.554688 -1.160156 8.859375 -5.015625 C 5.171875 -8.878906 3.328125 -14.429688 3.328125 -21.671875 C 3.328125 -28.929688 5.320312 -34.554688 9.3125 -38.546875 C 13.300781 -42.546875 18.976562 -44.546875 26.34375 -44.546875 C 31.414062 -44.546875 36.195312 -43.4375 40.6875 -41.21875 L 36.234375 -30.0625 C 34.410156 -30.851562 32.722656 -31.488281 31.171875 -31.96875 C 29.628906 -32.445312 28.019531 -32.6875 26.34375 -32.6875 C 23.894531 -32.6875 22 -31.734375 20.65625 -29.828125 C 19.320312 -27.921875 18.65625 -25.226562 18.65625 -21.75 C 18.65625 -14.75 21.242188 -11.25 26.421875 -11.25 C 30.859375 -11.25 35.109375 -12.535156 39.171875 -15.109375 L 39.171875 -3.09375 C 35.285156 -0.519531 30.613281 0.765625 25.15625 0.765625 Z M 25.15625 0.765625" transform="translate(269.563 462.342)"/></g></g></g><g><g><g><path d="M 47.015625 -21.984375 C 47.015625 -14.828125 45.085938 -9.242188 41.234375 -5.234375 C 37.390625 -1.234375 32.003906 0.765625 25.078125 0.765625 C 18.429688 0.765625 13.144531 -1.28125 9.21875 -5.375 C 5.289062 -9.46875 3.328125 -15.003906 3.328125 -21.984375 C 3.328125 -29.117188 5.25 -34.660156 9.09375 -38.609375 C 12.945312 -42.566406 18.351562 -44.546875 25.3125 -44.546875 C 29.613281 -44.546875 33.410156 -43.628906 36.703125 -41.796875 C 40.003906 -39.972656 42.546875 -37.351562 44.328125 -33.9375 C 46.117188 -30.53125 47.015625 -26.546875 47.015625 -21.984375 Z M 18.65625 -21.984375 C 18.65625 -18.222656 19.15625 -15.359375 20.15625 -13.390625 C 21.164062 -11.421875 22.859375 -10.4375 25.234375 -10.4375 C 27.578125 -10.4375 29.226562 -11.421875 30.1875 -13.390625 C 31.15625 -15.359375 31.640625 -18.222656 31.640625 -21.984375 C 31.640625 -25.710938 31.148438 -28.53125 30.171875 -30.4375 C 29.191406 -32.34375 27.519531 -33.296875 25.15625 -33.296875 C 22.832031 -33.296875 21.164062 -32.347656 20.15625 -30.453125 C 19.15625 -28.566406 18.65625 -25.742188 18.65625 -21.984375 Z M 18.65625 -21.984375" transform="translate(312.198 462.342)"/></g></g></g><g><g><g><path d="M 18.8125 0.765625 C 15.695312 0.765625 12.972656 -0.117188 10.640625 -1.890625 C 8.304688 -3.671875 6.503906 -6.285156 5.234375 -9.734375 C 3.960938 -13.179688 3.328125 -17.210938 3.328125 -21.828125 C 3.328125 -28.941406 4.753906 -34.503906 7.609375 -38.515625 C 10.472656 -42.535156 14.398438 -44.546875 19.390625 -44.546875 C 21.835938 -44.546875 23.984375 -44.054688 25.828125 -43.078125 C 27.671875 -42.097656 29.351562 -40.453125 30.875 -38.140625 L 31.171875 -38.140625 C 30.679688 -41.554688 30.4375 -44.976562 30.4375 -48.40625 L 30.4375 -60.109375 L 45.671875 -60.109375 L 45.671875 0 L 34.265625 0 L 31.03125 -5.53125 L 30.4375 -5.53125 C 27.84375 -1.332031 23.96875 0.765625 18.8125 0.765625 Z M 25 -11.171875 C 27.414062 -11.171875 29.117188 -11.925781 30.109375 -13.4375 C 31.109375 -14.957031 31.644531 -17.304688 31.71875 -20.484375 L 31.71875 -21.671875 C 31.71875 -25.535156 31.160156 -28.285156 30.046875 -29.921875 C 28.941406 -31.554688 27.207031 -32.375 24.84375 -32.375 C 22.863281 -32.375 21.320312 -31.441406 20.21875 -29.578125 C 19.125 -27.710938 18.578125 -25.050781 18.578125 -21.59375 C 18.578125 -18.195312 19.128906 -15.609375 20.234375 -13.828125 C 21.347656 -12.054688 22.9375 -11.171875 25 -11.171875 Z M 25 -11.171875" transform="translate(362.594 462.342)"/></g></g></g><g><g><g><path d="M 26.34375 0.765625 C 19.0625 0.765625 13.40625 -1.171875 9.375 -5.046875 C 5.34375 -8.921875 3.328125 -14.4375 3.328125 -21.59375 C 3.328125 -28.988281 5.191406 -34.660156 8.921875 -38.609375 C 12.660156 -42.566406 17.992188 -44.546875 24.921875 -44.546875 C 31.515625 -44.546875 36.609375 -42.828125 40.203125 -39.390625 C 43.796875 -35.953125 45.59375 -31 45.59375 -24.53125 L 45.59375 -17.8125 L 18.578125 -17.8125 C 18.679688 -15.363281 19.578125 -13.441406 21.265625 -12.046875 C 22.953125 -10.660156 25.253906 -9.96875 28.171875 -9.96875 C 30.816406 -9.96875 33.253906 -10.21875 35.484375 -10.71875 C 37.710938 -11.21875 40.128906 -12.078125 42.734375 -13.296875 L 42.734375 -2.4375 C 40.359375 -1.226562 37.910156 -0.394531 35.390625 0.0625 C 32.867188 0.53125 29.851562 0.765625 26.34375 0.765625 Z M 25.453125 -34.265625 C 23.679688 -34.265625 22.195312 -33.703125 21 -32.578125 C 19.800781 -31.460938 19.097656 -29.707031 18.890625 -27.3125 L 31.875 -27.3125 C 31.820312 -29.425781 31.222656 -31.113281 30.078125 -32.375 C 28.929688 -33.632812 27.390625 -34.265625 25.453125 -34.265625 Z M 25.453125 -34.265625" transform="translate(413.454 462.342)"/></g></g></g><g><g><g><path d="M 39.015625 -13.4375 C 39.015625 -8.75 37.414062 -5.207031 34.21875 -2.8125 C 31.03125 -0.425781 26.453125 0.765625 20.484375 0.765625 C 17.234375 0.765625 14.410156 0.59375 12.015625 0.25 C 9.617188 -0.09375 7.171875 -0.726562 4.671875 -1.65625 L 4.671875 -13.75 C 7.015625 -12.71875 9.582031 -11.867188 12.375 -11.203125 C 15.175781 -10.535156 17.671875 -10.203125 19.859375 -10.203125 C 23.128906 -10.203125 24.765625 -10.945312 24.765625 -12.4375 C 24.765625 -13.207031 24.304688 -13.894531 23.390625 -14.5 C 22.472656 -15.113281 19.816406 -16.296875 15.421875 -18.046875 C 11.398438 -19.691406 8.585938 -21.5625 6.984375 -23.65625 C 5.390625 -25.757812 4.59375 -28.421875 4.59375 -31.640625 C 4.59375 -35.710938 6.164062 -38.878906 9.3125 -41.140625 C 12.457031 -43.410156 16.898438 -44.546875 22.640625 -44.546875 C 25.523438 -44.546875 28.234375 -44.226562 30.765625 -43.59375 C 33.304688 -42.96875 35.941406 -42.050781 38.671875 -40.84375 L 34.578125 -31.09375 C 32.566406 -32 30.441406 -32.765625 28.203125 -33.390625 C 25.960938 -34.023438 24.132812 -34.34375 22.71875 -34.34375 C 20.25 -34.34375 19.015625 -33.738281 19.015625 -32.53125 C 19.015625 -31.78125 19.441406 -31.140625 20.296875 -30.609375 C 21.160156 -30.085938 23.65625 -29.015625 27.78125 -27.390625 C 30.84375 -26.128906 33.125 -24.894531 34.625 -23.6875 C 36.132812 -22.476562 37.242188 -21.050781 37.953125 -19.40625 C 38.660156 -17.769531 39.015625 -15.78125 39.015625 -13.4375 Z M 39.015625 -13.4375" transform="translate(462.345 462.342)"/></g></g></g><g><g><g><path d="M 3.328125 -6.40625 C 3.328125 -8.78125 4.023438 -10.609375 5.421875 -11.890625 C 6.828125 -13.179688 8.867188 -13.828125 11.546875 -13.828125 C 14.097656 -13.828125 16.054688 -13.179688 17.421875 -11.890625 C 18.785156 -10.609375 19.46875 -8.78125 19.46875 -6.40625 C 19.46875 -4.09375 18.765625 -2.285156 17.359375 -0.984375 C 15.960938 0.316406 14.023438 0.96875 11.546875 0.96875 C 9.003906 0.96875 7 0.328125 5.53125 -0.953125 C 4.0625 -2.242188 3.328125 -4.0625 3.328125 -6.40625 Z M 3.328125 -6.40625" transform="translate(504.515 462.342)"/></g></g></g><g><g><g><path d="M 25.15625 0.765625 C 17.988281 0.765625 12.554688 -1.160156 8.859375 -5.015625 C 5.171875 -8.878906 3.328125 -14.429688 3.328125 -21.671875 C 3.328125 -28.929688 5.320312 -34.554688 9.3125 -38.546875 C 13.300781 -42.546875 18.976562 -44.546875 26.34375 -44.546875 C 31.414062 -44.546875 36.195312 -43.4375 40.6875 -41.21875 L 36.234375 -30.0625 C 34.410156 -30.851562 32.722656 -31.488281 31.171875 -31.96875 C 29.628906 -32.445312 28.019531 -32.6875 26.34375 -32.6875 C 23.894531 -32.6875 22 -31.734375 20.65625 -29.828125 C 19.320312 -27.921875 18.65625 -25.226562 18.65625 -21.75 C 18.65625 -14.75 21.242188 -11.25 26.421875 -11.25 C 30.859375 -11.25 35.109375 -12.535156 39.171875 -15.109375 L 39.171875 -3.09375 C 35.285156 -0.519531 30.613281 0.765625 25.15625 0.765625 Z M 25.15625 0.765625" transform="translate(527.377 462.342)"/></g></g></g><g><g><g><path d="M 47.015625 -21.984375 C 47.015625 -14.828125 45.085938 -9.242188 41.234375 -5.234375 C 37.390625 -1.234375 32.003906 0.765625 25.078125 0.765625 C 18.429688 0.765625 13.144531 -1.28125 9.21875 -5.375 C 5.289062 -9.46875 3.328125 -15.003906 3.328125 -21.984375 C 3.328125 -29.117188 5.25 -34.660156 9.09375 -38.609375 C 12.945312 -42.566406 18.351562 -44.546875 25.3125 -44.546875 C 29.613281 -44.546875 33.410156 -43.628906 36.703125 -41.796875 C 40.003906 -39.972656 42.546875 -37.351562 44.328125 -33.9375 C 46.117188 -30.53125 47.015625 -26.546875 47.015625 -21.984375 Z M 18.65625 -21.984375 C 18.65625 -18.222656 19.15625 -15.359375 20.15625 -13.390625 C 21.164062 -11.421875 22.859375 -10.4375 25.234375 -10.4375 C 27.578125 -10.4375 29.226562 -11.421875 30.1875 -13.390625 C 31.15625 -15.359375 31.640625 -18.222656 31.640625 -21.984375 C 31.640625 -25.710938 31.148438 -28.53125 30.171875 -30.4375 C 29.191406 -32.34375 27.519531 -33.296875 25.15625 -33.296875 C 22.832031 -33.296875 21.164062 -32.347656 20.15625 -30.453125 C 19.15625 -28.566406 18.65625 -25.742188 18.65625 -21.984375 Z M 18.65625 -21.984375" transform="translate(570.012 462.342)"/></g></g></g><g><g><g><path d="M 58.953125 0 L 58.953125 -23.796875 C 58.953125 -26.765625 58.546875 -28.988281 57.734375 -30.46875 C 56.921875 -31.945312 55.640625 -32.6875 53.890625 -32.6875 C 51.578125 -32.6875 49.878906 -31.691406 48.796875 -29.703125 C 47.710938 -27.722656 47.171875 -24.625 47.171875 -20.40625 L 47.171875 0 L 32.03125 0 L 32.03125 -23.796875 C 32.03125 -26.765625 31.640625 -28.988281 30.859375 -30.46875 C 30.085938 -31.945312 28.84375 -32.6875 27.125 -32.6875 C 24.75 -32.6875 23.019531 -31.628906 21.9375 -29.515625 C 20.863281 -27.398438 20.328125 -23.945312 20.328125 -19.15625 L 20.328125 0 L 5.21875 0 L 5.21875 -43.78125 L 16.609375 -43.78125 L 18.5 -38.359375 L 19.390625 -38.359375 C 20.554688 -40.367188 22.238281 -41.898438 24.4375 -42.953125 C 26.632812 -44.015625 29.140625 -44.546875 31.953125 -44.546875 C 38.265625 -44.546875 42.691406 -42.628906 45.234375 -38.796875 L 46.4375 -38.796875 C 47.675781 -40.597656 49.394531 -42.003906 51.59375 -43.015625 C 53.800781 -44.035156 56.226562 -44.546875 58.875 -44.546875 C 64.050781 -44.546875 67.875 -43.21875 70.34375 -40.5625 C 72.820312 -37.914062 74.0625 -33.882812 74.0625 -28.46875 L 74.0625 0 Z M 58.953125 0" transform="translate(620.408 462.342)"/></g></g></g></svg>