<svg xmlns="http://www.w3.org/2000/svg" xmlns:xlink="http://www.w3.org/1999/xlink" width="480" viewBox="0 0 480 360" height="360" version="1.0"><defs><g id="n"><path d="M 1.4375 0 L 1.4375 -16.171875 L 6.421875 -16.171875 C 7.835938 -16.171875 9.109375 -15.847656 10.234375 -15.203125 C 11.359375 -14.566406 12.234375 -13.65625 12.859375 -12.46875 C 13.492188 -11.289062 13.8125 -9.953125 13.8125 -8.453125 L 13.8125 -7.703125 C 13.8125 -6.203125 13.5 -4.863281 12.875 -3.6875 C 12.257812 -2.519531 11.390625 -1.613281 10.265625 -0.96875 C 9.140625 -0.332031 7.867188 -0.0078125 6.453125 0 Z M 4.78125 -13.46875 L 4.78125 -2.671875 L 6.390625 -2.671875 C 7.691406 -2.671875 8.6875 -3.097656 9.375 -3.953125 C 10.0625 -4.804688 10.414062 -6.023438 10.4375 -7.609375 L 10.4375 -8.46875 C 10.4375 -10.113281 10.09375 -11.359375 9.40625 -12.203125 C 8.726562 -13.046875 7.734375 -13.46875 6.421875 -13.46875 Z M 4.78125 -13.46875"/></g><g id="o"><path d="M 7.984375 -9.015625 C 7.546875 -9.066406 7.160156 -9.09375 6.828125 -9.09375 C 5.617188 -9.09375 4.820312 -8.679688 4.4375 -7.859375 L 4.4375 0 L 1.234375 0 L 1.234375 -12.015625 L 4.265625 -12.015625 L 4.359375 -10.59375 C 5.003906 -11.6875 5.894531 -12.234375 7.03125 -12.234375 C 7.382812 -12.234375 7.71875 -12.1875 8.03125 -12.09375 Z M 7.984375 -9.015625"/></g><g id="p"><path d="M 1.40625 -1.578125 C 1.40625 -2.085938 1.578125 -2.5 1.921875 -2.8125 C 2.265625 -3.132812 2.691406 -3.296875 3.203125 -3.296875 C 3.734375 -3.296875 4.171875 -3.132812 4.515625 -2.8125 C 4.859375 -2.5 5.03125 -2.085938 5.03125 -1.578125 C 5.03125 -1.078125 4.859375 -0.664062 4.515625 -0.34375 C 4.179688 -0.03125 3.742188 0.125 3.203125 0.125 C 2.679688 0.125 2.25 -0.03125 1.90625 -0.34375 C 1.570312 -0.664062 1.40625 -1.078125 1.40625 -1.578125 Z M 1.40625 -1.578125"/></g><g id="r"><path d="M 14.140625 -5.390625 C 14.015625 -3.648438 13.367188 -2.28125 12.203125 -1.28125 C 11.046875 -0.28125 9.519531 0.21875 7.625 0.21875 C 5.550781 0.21875 3.921875 -0.476562 2.734375 -1.875 C 1.546875 -3.269531 0.953125 -5.1875 0.953125 -7.625 L 0.953125 -8.609375 C 0.953125 -10.160156 1.222656 -11.53125 1.765625 -12.71875 C 2.316406 -13.90625 3.101562 -14.8125 4.125 -15.4375 C 5.144531 -16.070312 6.328125 -16.390625 7.671875 -16.390625 C 9.535156 -16.390625 11.035156 -15.890625 12.171875 -14.890625 C 13.316406 -13.890625 13.976562 -12.488281 14.15625 -10.6875 L 10.828125 -10.6875 C 10.742188 -11.726562 10.453125 -12.484375 9.953125 -12.953125 C 9.453125 -13.421875 8.691406 -13.65625 7.671875 -13.65625 C 6.566406 -13.65625 5.738281 -13.257812 5.1875 -12.46875 C 4.632812 -11.675781 4.347656 -10.441406 4.328125 -8.765625 L 4.328125 -7.546875 C 4.328125 -5.796875 4.59375 -4.515625 5.125 -3.703125 C 5.65625 -2.898438 6.488281 -2.5 7.625 -2.5 C 8.65625 -2.5 9.425781 -2.734375 9.9375 -3.203125 C 10.445312 -3.671875 10.738281 -4.398438 10.8125 -5.390625 Z M 14.140625 -5.390625"/></g><g id="s"><path d="M 4.625 0 L 1.40625 0 L 1.40625 -17.0625 L 4.625 -17.0625 Z M 4.625 0"/></g><g id="t"><path d="M 8.203125 0 C 8.046875 -0.289062 7.9375 -0.648438 7.875 -1.078125 C 7.09375 -0.210938 6.082031 0.21875 4.84375 0.21875 C 3.664062 0.21875 2.6875 -0.117188 1.90625 -0.796875 C 1.132812 -1.484375 0.75 -2.34375 0.75 -3.375 C 0.75 -4.644531 1.222656 -5.617188 2.171875 -6.296875 C 3.117188 -6.984375 4.484375 -7.332031 6.265625 -7.34375 L 7.75 -7.34375 L 7.75 -8.03125 C 7.75 -8.582031 7.601562 -9.023438 7.3125 -9.359375 C 7.03125 -9.691406 6.582031 -9.859375 5.96875 -9.859375 C 5.425781 -9.859375 5 -9.726562 4.6875 -9.46875 C 4.382812 -9.21875 4.234375 -8.863281 4.234375 -8.40625 L 1.015625 -8.40625 C 1.015625 -9.101562 1.226562 -9.75 1.65625 -10.34375 C 2.09375 -10.9375 2.703125 -11.398438 3.484375 -11.734375 C 4.273438 -12.066406 5.15625 -12.234375 6.125 -12.234375 C 7.613281 -12.234375 8.789062 -11.863281 9.65625 -11.125 C 10.53125 -10.382812 10.96875 -9.335938 10.96875 -7.984375 L 10.96875 -2.78125 C 10.96875 -1.632812 11.125 -0.769531 11.4375 -0.1875 L 11.4375 0 Z M 5.546875 -2.234375 C 6.015625 -2.234375 6.445312 -2.335938 6.84375 -2.546875 C 7.25 -2.753906 7.550781 -3.039062 7.75 -3.40625 L 7.75 -5.46875 L 6.546875 -5.46875 C 4.929688 -5.46875 4.078125 -4.910156 3.984375 -3.796875 L 3.96875 -3.609375 C 3.96875 -3.210938 4.109375 -2.882812 4.390625 -2.625 C 4.671875 -2.363281 5.054688 -2.234375 5.546875 -2.234375 Z M 5.546875 -2.234375"/></g><g id="u"><path d="M 5.71875 -4.546875 L 7.9375 -12.015625 L 11.390625 -12.015625 L 6.546875 1.859375 L 6.28125 2.5 C 5.5625 4.070312 4.378906 4.859375 2.734375 4.859375 C 2.265625 4.859375 1.789062 4.785156 1.3125 4.640625 L 1.3125 2.203125 L 1.796875 2.21875 C 2.398438 2.21875 2.851562 2.125 3.15625 1.9375 C 3.457031 1.757812 3.691406 1.453125 3.859375 1.015625 L 4.25 0.03125 L 0.03125 -12.015625 L 3.484375 -12.015625 Z M 5.71875 -4.546875"/></g><g id="v"><path d="M 0.734375 -6.09375 C 0.734375 -7.96875 1.148438 -9.457031 1.984375 -10.5625 C 2.828125 -11.675781 3.976562 -12.234375 5.4375 -12.234375 C 6.613281 -12.234375 7.582031 -11.800781 8.34375 -10.9375 L 8.34375 -17.0625 L 11.5625 -17.0625 L 11.5625 0 L 8.671875 0 L 8.515625 -1.28125 C 7.710938 -0.28125 6.679688 0.21875 5.421875 0.21875 C 4.003906 0.21875 2.867188 -0.335938 2.015625 -1.453125 C 1.160156 -2.566406 0.734375 -4.113281 0.734375 -6.09375 Z M 3.9375 -5.859375 C 3.9375 -4.734375 4.132812 -3.867188 4.53125 -3.265625 C 4.925781 -2.671875 5.5 -2.375 6.25 -2.375 C 7.238281 -2.375 7.9375 -2.789062 8.34375 -3.625 L 8.34375 -8.375 C 7.945312 -9.207031 7.253906 -9.625 6.265625 -9.625 C 4.710938 -9.625 3.9375 -8.367188 3.9375 -5.859375 Z M 3.9375 -5.859375"/></g><g id="w"><path d="M 6.765625 0.21875 C 5.003906 0.21875 3.566406 -0.316406 2.453125 -1.390625 C 1.347656 -2.472656 0.796875 -3.914062 0.796875 -5.71875 L 0.796875 -6.03125 C 0.796875 -7.238281 1.03125 -8.316406 1.5 -9.265625 C 1.96875 -10.222656 2.628906 -10.957031 3.484375 -11.46875 C 4.335938 -11.976562 5.3125 -12.234375 6.40625 -12.234375 C 8.050781 -12.234375 9.34375 -11.710938 10.28125 -10.671875 C 11.226562 -9.640625 11.703125 -8.175781 11.703125 -6.28125 L 11.703125 -4.96875 L 4.046875 -4.96875 C 4.148438 -4.175781 4.460938 -3.539062 4.984375 -3.0625 C 5.515625 -2.59375 6.175781 -2.359375 6.96875 -2.359375 C 8.207031 -2.359375 9.175781 -2.804688 9.875 -3.703125 L 11.453125 -1.9375 C 10.972656 -1.257812 10.320312 -0.726562 9.5 -0.34375 C 8.675781 0.03125 7.765625 0.21875 6.765625 0.21875 Z M 6.40625 -9.640625 C 5.757812 -9.640625 5.238281 -9.425781 4.84375 -9 C 4.445312 -8.570312 4.195312 -7.957031 4.09375 -7.15625 L 8.546875 -7.15625 L 8.546875 -7.40625 C 8.535156 -8.113281 8.34375 -8.660156 7.96875 -9.046875 C 7.601562 -9.441406 7.082031 -9.640625 6.40625 -9.640625 Z M 6.40625 -9.640625"/></g><g id="x"><path d="M 4.1875 -12.015625 L 4.28125 -10.625 C 5.144531 -11.695312 6.300781 -12.234375 7.75 -12.234375 C 9.019531 -12.234375 9.960938 -11.859375 10.578125 -11.109375 C 11.203125 -10.367188 11.523438 -9.253906 11.546875 -7.765625 L 11.546875 0 L 8.328125 0 L 8.328125 -7.6875 C 8.328125 -8.363281 8.175781 -8.851562 7.875 -9.15625 C 7.582031 -9.46875 7.09375 -9.625 6.40625 -9.625 C 5.5 -9.625 4.820312 -9.238281 4.375 -8.46875 L 4.375 0 L 1.171875 0 L 1.171875 -12.015625 Z M 4.1875 -12.015625"/></g><g id="y"><path d="M 6.515625 -6.484375 L 4.78125 -4.625 L 4.78125 0 L 1.4375 0 L 1.4375 -16.171875 L 4.78125 -16.171875 L 4.78125 -8.84375 L 6.25 -10.859375 L 10.359375 -16.171875 L 14.46875 -16.171875 L 8.71875 -8.984375 L 14.625 0 L 10.671875 0 Z M 6.515625 -6.484375"/></g><g id="z"><path d="M 7.75 -3.328125 C 7.75 -3.710938 7.550781 -4.019531 7.15625 -4.25 C 6.769531 -4.476562 6.144531 -4.679688 5.28125 -4.859375 C 2.425781 -5.453125 1 -6.664062 1 -8.5 C 1 -9.5625 1.441406 -10.445312 2.328125 -11.15625 C 3.210938 -11.875 4.367188 -12.234375 5.796875 -12.234375 C 7.328125 -12.234375 8.546875 -11.875 9.453125 -11.15625 C 10.367188 -10.445312 10.828125 -9.515625 10.828125 -8.359375 L 7.625 -8.359375 C 7.625 -8.816406 7.472656 -9.195312 7.171875 -9.5 C 6.878906 -9.800781 6.414062 -9.953125 5.78125 -9.953125 C 5.25 -9.953125 4.832031 -9.828125 4.53125 -9.578125 C 4.238281 -9.335938 4.09375 -9.03125 4.09375 -8.65625 C 4.09375 -8.300781 4.257812 -8.015625 4.59375 -7.796875 C 4.925781 -7.578125 5.492188 -7.382812 6.296875 -7.21875 C 7.097656 -7.0625 7.769531 -6.882812 8.3125 -6.6875 C 10.007812 -6.0625 10.859375 -4.984375 10.859375 -3.453125 C 10.859375 -2.359375 10.390625 -1.472656 9.453125 -0.796875 C 8.515625 -0.117188 7.300781 0.21875 5.8125 0.21875 C 4.800781 0.21875 3.90625 0.0390625 3.125 -0.3125 C 2.34375 -0.675781 1.726562 -1.171875 1.28125 -1.796875 C 0.84375 -2.421875 0.625 -3.097656 0.625 -3.828125 L 3.671875 -3.828125 C 3.691406 -3.253906 3.898438 -2.816406 4.296875 -2.515625 C 4.691406 -2.210938 5.21875 -2.0625 5.875 -2.0625 C 6.488281 -2.0625 6.953125 -2.175781 7.265625 -2.40625 C 7.585938 -2.632812 7.75 -2.941406 7.75 -3.328125 Z M 7.75 -3.328125"/></g><g id="A"><path d="M 4.625 0 L 1.40625 0 L 1.40625 -12.015625 L 4.625 -12.015625 Z M 1.203125 -15.125 C 1.203125 -15.613281 1.363281 -16.007812 1.6875 -16.3125 C 2.007812 -16.625 2.453125 -16.78125 3.015625 -16.78125 C 3.554688 -16.78125 3.988281 -16.625 4.3125 -16.3125 C 4.644531 -16.007812 4.8125 -15.613281 4.8125 -15.125 C 4.8125 -14.632812 4.644531 -14.234375 4.3125 -13.921875 C 3.988281 -13.617188 3.554688 -13.46875 3.015625 -13.46875 C 2.472656 -13.46875 2.035156 -13.617188 1.703125 -13.921875 C 1.367188 -14.234375 1.203125 -14.632812 1.203125 -15.125 Z M 1.203125 -15.125"/></g><g id="B"><path d="M 0.734375 -6.125 C 0.734375 -7.3125 0.960938 -8.367188 1.421875 -9.296875 C 1.878906 -10.234375 2.539062 -10.957031 3.40625 -11.46875 C 4.269531 -11.976562 5.269531 -12.234375 6.40625 -12.234375 C 8.03125 -12.234375 9.351562 -11.738281 10.375 -10.75 C 11.40625 -9.757812 11.976562 -8.410156 12.09375 -6.703125 L 12.125 -5.890625 C 12.125 -4.046875 11.609375 -2.566406 10.578125 -1.453125 C 9.546875 -0.335938 8.160156 0.21875 6.421875 0.21875 C 4.691406 0.21875 3.3125 -0.332031 2.28125 -1.4375 C 1.25 -2.550781 0.734375 -4.0625 0.734375 -5.96875 Z M 3.9375 -5.890625 C 3.9375 -4.742188 4.148438 -3.867188 4.578125 -3.265625 C 5.015625 -2.660156 5.632812 -2.359375 6.4375 -2.359375 C 7.207031 -2.359375 7.8125 -2.65625 8.25 -3.25 C 8.6875 -3.851562 8.90625 -4.8125 8.90625 -6.125 C 8.90625 -7.238281 8.6875 -8.101562 8.25 -8.71875 C 7.8125 -9.332031 7.195312 -9.640625 6.40625 -9.640625 C 5.625 -9.640625 5.015625 -9.332031 4.578125 -8.71875 C 4.148438 -8.113281 3.9375 -7.171875 3.9375 -5.890625 Z M 3.9375 -5.890625"/></g><g id="C"><path d="M 8.4375 -1.21875 C 7.644531 -0.257812 6.546875 0.21875 5.140625 0.21875 C 3.847656 0.21875 2.863281 -0.148438 2.1875 -0.890625 C 1.507812 -1.628906 1.164062 -2.710938 1.15625 -4.140625 L 1.15625 -12.015625 L 4.359375 -12.015625 L 4.359375 -4.25 C 4.359375 -3 4.929688 -2.375 6.078125 -2.375 C 7.160156 -2.375 7.90625 -2.753906 8.3125 -3.515625 L 8.3125 -12.015625 L 11.546875 -12.015625 L 11.546875 0 L 8.515625 0 Z M 8.4375 -1.21875"/></g><g id="D"><path d="M 5.59375 -4.828125 L 4.4375 -3.671875 L 4.4375 0 L 1.234375 0 L 1.234375 -17.0625 L 4.4375 -17.0625 L 4.4375 -7.609375 L 5.0625 -8.40625 L 8.140625 -12.015625 L 12 -12.015625 L 7.65625 -7.015625 L 12.375 0 L 8.6875 0 Z M 5.59375 -4.828125"/></g><g id="E"><path d="M 5.734375 -3.921875 L 7.96875 -12.015625 L 11.3125 -12.015625 L 7.265625 0 L 4.203125 0 L 0.140625 -12.015625 L 3.5 -12.015625 Z M 5.734375 -3.921875"/></g><g id="F"><path d="M 6.578125 -7.84375 L 6.578125 0 L 1.984375 0 L 1.984375 -22.25 L 10.671875 -22.25 C 12.335938 -22.25 13.804688 -21.941406 15.078125 -21.328125 C 16.347656 -20.722656 17.320312 -19.859375 18 -18.734375 C 18.6875 -17.609375 19.03125 -16.328125 19.03125 -14.890625 C 19.03125 -12.703125 18.28125 -10.976562 16.78125 -9.71875 C 15.289062 -8.46875 13.226562 -7.84375 10.59375 -7.84375 Z M 6.578125 -11.546875 L 10.671875 -11.546875 C 11.878906 -11.546875 12.800781 -11.832031 13.4375 -12.40625 C 14.070312 -12.976562 14.390625 -13.796875 14.390625 -14.859375 C 14.390625 -15.941406 14.066406 -16.816406 13.421875 -17.484375 C 12.785156 -18.160156 11.90625 -18.507812 10.78125 -18.53125 L 6.578125 -18.53125 Z M 6.578125 -11.546875"/></g><g id="G"><path d="M 15.375 -9.640625 L 6.578125 -9.640625 L 6.578125 -3.6875 L 16.90625 -3.6875 L 16.90625 0 L 1.984375 0 L 1.984375 -22.25 L 16.875 -22.25 L 16.875 -18.53125 L 6.578125 -18.53125 L 6.578125 -13.234375 L 15.375 -13.234375 Z M 15.375 -9.640625"/></g><g id="H"><path d="M 14.546875 -4.578125 L 6.515625 -4.578125 L 4.984375 0 L 0.109375 0 L 8.390625 -22.25 L 12.640625 -22.25 L 20.96875 0 L 16.09375 0 Z M 7.75 -8.296875 L 13.3125 -8.296875 L 10.515625 -16.625 Z M 7.75 -8.296875"/></g><g id="I"><path d="M 8.953125 -8.921875 L 6.578125 -6.359375 L 6.578125 0 L 1.984375 0 L 1.984375 -22.25 L 6.578125 -22.25 L 6.578125 -12.171875 L 8.59375 -14.9375 L 14.25 -22.25 L 19.890625 -22.25 L 12 -12.359375 L 20.125 0 L 14.671875 0 Z M 8.953125 -8.921875"/></g><g id="K"><path d="M 6.984375 -20.59375 L 6.984375 -16.53125 L 9.8125 -16.53125 L 9.8125 -13.296875 L 6.984375 -13.296875 L 6.984375 -5.046875 C 6.984375 -4.429688 7.097656 -3.988281 7.328125 -3.71875 C 7.566406 -3.457031 8.019531 -3.328125 8.6875 -3.328125 C 9.164062 -3.328125 9.597656 -3.363281 9.984375 -3.4375 L 9.984375 -0.09375 C 9.117188 0.175781 8.222656 0.3125 7.296875 0.3125 C 4.203125 0.3125 2.625 -1.253906 2.5625 -4.390625 L 2.5625 -13.296875 L 0.15625 -13.296875 L 0.15625 -16.53125 L 2.5625 -16.53125 L 2.5625 -20.59375 Z M 6.984375 -20.59375"/></g><g id="L"><path d="M 1.015625 -8.421875 C 1.015625 -10.054688 1.328125 -11.515625 1.953125 -12.796875 C 2.585938 -14.085938 3.5 -15.082031 4.6875 -15.78125 C 5.875 -16.488281 7.25 -16.84375 8.8125 -16.84375 C 11.050781 -16.84375 12.875 -16.160156 14.28125 -14.796875 C 15.6875 -13.429688 16.472656 -11.578125 16.640625 -9.234375 L 16.671875 -8.09375 C 16.671875 -5.5625 15.960938 -3.523438 14.546875 -1.984375 C 13.128906 -0.453125 11.226562 0.3125 8.84375 0.3125 C 6.457031 0.3125 4.554688 -0.453125 3.140625 -1.984375 C 1.722656 -3.515625 1.015625 -5.59375 1.015625 -8.21875 Z M 5.421875 -8.09375 C 5.421875 -6.53125 5.71875 -5.332031 6.3125 -4.5 C 6.90625 -3.664062 7.75 -3.25 8.84375 -3.25 C 9.914062 -3.25 10.75 -3.660156 11.34375 -4.484375 C 11.945312 -5.304688 12.25 -6.617188 12.25 -8.421875 C 12.25 -9.960938 11.945312 -11.15625 11.34375 -12 C 10.75 -12.84375 9.90625 -13.265625 8.8125 -13.265625 C 7.738281 -13.265625 6.90625 -12.84375 6.3125 -12 C 5.71875 -11.164062 5.421875 -9.863281 5.421875 -8.09375 Z M 5.421875 -8.09375"/></g><g id="M"><path d="M 13.53125 -5.84375 C 13.53125 -6.707031 13.222656 -7.367188 12.609375 -7.828125 C 11.992188 -8.296875 10.890625 -8.785156 9.296875 -9.296875 C 7.710938 -9.816406 6.457031 -10.320312 5.53125 -10.8125 C 3 -12.175781 1.734375 -14.019531 1.734375 -16.34375 C 1.734375 -17.539062 2.070312 -18.609375 2.75 -19.546875 C 3.4375 -20.492188 4.410156 -21.234375 5.671875 -21.765625 C 6.941406 -22.296875 8.367188 -22.5625 9.953125 -22.5625 C 11.535156 -22.5625 12.945312 -22.269531 14.1875 -21.6875 C 15.4375 -21.113281 16.40625 -20.300781 17.09375 -19.25 C 17.78125 -18.207031 18.125 -17.015625 18.125 -15.671875 L 13.546875 -15.671875 C 13.546875 -16.691406 13.222656 -17.484375 12.578125 -18.046875 C 11.929688 -18.617188 11.03125 -18.90625 9.875 -18.90625 C 8.75 -18.90625 7.875 -18.664062 7.25 -18.1875 C 6.632812 -17.71875 6.328125 -17.097656 6.328125 -16.328125 C 6.328125 -15.597656 6.691406 -14.988281 7.421875 -14.5 C 8.148438 -14.007812 9.222656 -13.550781 10.640625 -13.125 C 13.242188 -12.34375 15.140625 -11.367188 16.328125 -10.203125 C 17.523438 -9.046875 18.125 -7.601562 18.125 -5.875 C 18.125 -3.945312 17.394531 -2.429688 15.9375 -1.328125 C 14.476562 -0.234375 12.519531 0.3125 10.0625 0.3125 C 8.34375 0.3125 6.78125 0 5.375 -0.625 C 3.96875 -1.257812 2.894531 -2.117188 2.15625 -3.203125 C 1.414062 -4.296875 1.046875 -5.5625 1.046875 -7 L 5.65625 -7 C 5.65625 -4.539062 7.125 -3.3125 10.0625 -3.3125 C 11.144531 -3.3125 11.992188 -3.53125 12.609375 -3.96875 C 13.222656 -4.414062 13.53125 -5.039062 13.53125 -5.84375 Z M 13.53125 -5.84375"/></g><g id="N"><path d="M 20.09375 0 L 15.515625 0 L 15.515625 -9.53125 L 6.578125 -9.53125 L 6.578125 0 L 1.984375 0 L 1.984375 -22.25 L 6.578125 -22.25 L 6.578125 -13.234375 L 15.515625 -13.234375 L 15.515625 -22.25 L 20.09375 -22.25 Z M 20.09375 0"/></g><g id="O"><path d="M 20.265625 -10.625 C 20.265625 -8.425781 19.875 -6.503906 19.09375 -4.859375 C 18.320312 -3.210938 17.210938 -1.9375 15.765625 -1.03125 C 14.328125 -0.132812 12.675781 0.3125 10.8125 0.3125 C 8.96875 0.3125 7.320312 -0.128906 5.875 -1.015625 C 4.4375 -1.910156 3.316406 -3.179688 2.515625 -4.828125 C 1.722656 -6.472656 1.320312 -8.363281 1.3125 -10.5 L 1.3125 -11.59375 C 1.3125 -13.789062 1.707031 -15.71875 2.5 -17.375 C 3.289062 -19.039062 4.40625 -20.320312 5.84375 -21.21875 C 7.28125 -22.113281 8.925781 -22.5625 10.78125 -22.5625 C 12.632812 -22.5625 14.28125 -22.113281 15.71875 -21.21875 C 17.164062 -20.320312 18.285156 -19.039062 19.078125 -17.375 C 19.867188 -15.71875 20.265625 -13.796875 20.265625 -11.609375 Z M 15.625 -11.625 C 15.625 -13.957031 15.203125 -15.726562 14.359375 -16.9375 C 13.523438 -18.15625 12.332031 -18.765625 10.78125 -18.765625 C 9.25 -18.765625 8.0625 -18.164062 7.21875 -16.96875 C 6.382812 -15.769531 5.960938 -14.015625 5.953125 -11.703125 L 5.953125 -10.625 C 5.953125 -8.351562 6.367188 -6.585938 7.203125 -5.328125 C 8.046875 -4.078125 9.25 -3.453125 10.8125 -3.453125 C 12.351562 -3.453125 13.535156 -4.054688 14.359375 -5.265625 C 15.191406 -6.472656 15.613281 -8.234375 15.625 -10.546875 Z M 15.625 -11.625"/></g><g id="P"><path d="M 10.21875 -8.140625 L 6.578125 -8.140625 L 6.578125 0 L 1.984375 0 L 1.984375 -22.25 L 10.25 -22.25 C 12.882812 -22.25 14.910156 -21.660156 16.328125 -20.484375 C 17.753906 -19.316406 18.46875 -17.664062 18.46875 -15.53125 C 18.46875 -14.007812 18.140625 -12.738281 17.484375 -11.71875 C 16.828125 -10.707031 15.832031 -9.90625 14.5 -9.3125 L 19.3125 -0.21875 L 19.3125 0 L 14.390625 0 Z M 6.578125 -11.859375 L 10.265625 -11.859375 C 11.421875 -11.859375 12.3125 -12.148438 12.9375 -12.734375 C 13.570312 -13.316406 13.890625 -14.125 13.890625 -15.15625 C 13.890625 -16.207031 13.59375 -17.03125 13 -17.625 C 12.40625 -18.226562 11.488281 -18.53125 10.25 -18.53125 L 6.578125 -18.53125 Z M 6.578125 -11.859375"/></g><g id="a"><path d="M 22.15625 -26.375 L 27.238281 -26.578125 C 26.324219 -33.082031 20.632812 -35.929688 15.144531 -35.929688 C 11.027344 -35.929688 6.757812 -34.304688 4.371094 -31.203125 C 3.050781 -29.476562 2.386719 -27.441406 2.386719 -25.308594 C 2.386719 -25.054688 2.4375 -24.75 2.4375 -24.445312 L 2.4375 -24.496094 C 3 -17.074219 9.503906 -15.855469 15.042969 -15.296875 C 18.601562 -14.941406 22.257812 -14.484375 22.867188 -11.789062 C 22.96875 -11.332031 23.019531 -10.925781 23.019531 -10.570312 C 23.019531 -6.910156 18.855469 -4.777344 15.042969 -4.777344 C 11.738281 -4.777344 7.726562 -6.503906 7.367188 -9.808594 L 7.367188 -9.605469 L 7.316406 -10.367188 L 2.132812 -10.265625 L 2.183594 -9.300781 C 2.847656 -2.949219 9.503906 0.304688 14.992188 0.304688 C 21.394531 0.304688 28.207031 -3.660156 28.207031 -10.519531 C 28.207031 -11.230469 28.101562 -12.09375 27.949219 -12.859375 C 26.578125 -18.550781 20.53125 -19.820312 15.652344 -20.429688 C 11.6875 -20.785156 7.570312 -21.292969 7.570312 -25.410156 C 7.570312 -26.425781 7.828125 -27.441406 8.4375 -28.207031 C 9.910156 -30.085938 12.601562 -30.898438 15.042969 -30.898438 C 18.09375 -30.898438 21.445312 -29.527344 22.15625 -26.375 Z M 22.15625 -26.375"/></g><g id="b"><path d="M 3.761719 8.03125 L 8.742188 8.03125 L 8.742188 -3.609375 C 11.179688 -0.355469 14.585938 0.457031 17.992188 0.457031 C 27.289062 0.457031 32.167969 -6.199219 32.167969 -13.671875 C 32.167969 -21.191406 27.59375 -27.949219 18.042969 -27.949219 C 14.585938 -27.949219 10.722656 -26.832031 8.742188 -23.835938 L 8.742188 -27.492188 L 3.761719 -27.492188 Z M 8.742188 -13.773438 C 8.742188 -20.328125 13.417969 -23.582031 18.042969 -23.582031 C 24.089844 -23.582031 27.1875 -18.753906 27.1875 -13.773438 C 27.1875 -8.84375 24.089844 -3.964844 17.992188 -3.964844 C 13.367188 -3.964844 8.742188 -7.214844 8.742188 -13.773438 Z M 8.742188 -13.773438"/></g><g id="c"><path d="M 32.269531 -13.722656 C 32.269531 -23.175781 24.953125 -27.949219 17.53125 -27.949219 C 10.0625 -27.949219 2.644531 -23.226562 2.644531 -13.722656 C 2.644531 -4.269531 10.011719 0.507812 17.378906 0.507812 C 24.851562 0.507812 32.269531 -4.21875 32.269531 -13.722656 Z M 7.621094 -13.722656 C 7.621094 -20.277344 12.550781 -23.53125 17.53125 -23.53125 C 22.410156 -23.53125 27.339844 -20.226562 27.339844 -13.722656 C 27.339844 -7.265625 22.410156 -3.964844 17.480469 -3.964844 C 12.550781 -3.964844 7.621094 -7.214844 7.621094 -13.722656 Z M 7.621094 -13.722656"/></g><g id="d"><path d="M 8.742188 -24.089844 L 8.742188 -27.441406 L 3.8125 -27.441406 L 3.8125 0 L 8.742188 0 L 8.742188 -14.890625 C 8.742188 -19.921875 12.601562 -23.632812 17.226562 -23.632812 C 18.042969 -23.632812 18.90625 -23.53125 19.769531 -23.277344 L 19.769531 -27.644531 C 18.652344 -27.898438 17.582031 -28.050781 16.515625 -28.050781 C 13.46875 -28.050781 10.722656 -26.832031 8.742188 -24.089844 Z M 8.742188 -24.089844"/></g><g id="e"><path d="M 10.316406 -27.492188 L 10.316406 -33.59375 L 5.335938 -32.625 L 5.335938 -27.492188 L 1.21875 -27.492188 L 1.21875 -23.53125 L 5.335938 -23.53125 L 5.335938 -8.082031 C 5.335938 -1.675781 8.84375 0.152344 14.230469 0.152344 C 14.941406 0.152344 15.703125 0.101562 16.515625 0.0507812 L 16.515625 -4.117188 C 15.753906 -4.066406 15.042969 -4.015625 14.433594 -4.015625 C 11.941406 -4.015625 10.316406 -4.777344 10.316406 -8.03125 L 10.316406 -23.53125 L 16.363281 -23.53125 L 16.363281 -27.492188 Z M 10.316406 -27.492188"/></g><g id="f"><path d="M 7.265625 -19.566406 C 7.265625 -22.410156 10.113281 -23.582031 13.164062 -23.582031 C 16.160156 -23.582031 18.753906 -22.410156 19.007812 -19.972656 L 23.9375 -19.972656 C 23.582031 -25.714844 18.753906 -28.050781 13.316406 -28.050781 C 7.980469 -28.050781 2.335938 -25.816406 2.335938 -19.464844 C 2.335938 -13.316406 8.183594 -11.789062 13.113281 -11.585938 C 15.5 -11.484375 19.769531 -10.976562 19.769531 -7.929688 C 19.769531 -4.675781 15.855469 -3.863281 13.367188 -3.863281 C 9.960938 -3.863281 7.113281 -5.386719 6.910156 -8.4375 L 1.929688 -8.4375 C 2.285156 -1.929688 7.570312 0.457031 13.265625 0.457031 C 18.449219 0.457031 24.75 -1.421875 24.75 -7.828125 C 24.75 -14.078125 18.855469 -15.703125 13.671875 -16.058594 C 11.230469 -16.210938 7.265625 -16.109375 7.265625 -19.566406 Z M 7.265625 -19.566406"/></g><g id="h"><path d="M 4.371094 0 L 9.503906 0 L 9.503906 -25.054688 L 18.804688 -11.230469 L 21.699219 -11.230469 L 31 -25.054688 L 31 0 L 36.082031 0 L 36.082031 -35.574219 L 32.015625 -35.574219 L 20.277344 -18.296875 L 8.539062 -35.574219 L 4.371094 -35.574219 Z M 4.371094 0"/></g><g id="i"><path d="M 30.796875 -14.941406 C 30.238281 -23.582031 23.53125 -27.898438 16.71875 -27.898438 C 9.453125 -27.898438 2.4375 -23.175781 2.4375 -13.722656 C 2.4375 -4.269531 9.554688 0.507812 16.617188 0.507812 C 22.257812 0.507812 27.898438 -2.488281 29.984375 -8.488281 L 24.851562 -8.488281 C 23.226562 -5.386719 20.074219 -3.914062 16.667969 -3.914062 C 12.550781 -3.914062 7.417969 -7.164062 7.417969 -12.550781 L 30.695312 -12.550781 C 30.796875 -13.011719 30.847656 -13.519531 30.847656 -14.078125 C 30.847656 -14.382812 30.847656 -14.636719 30.796875 -14.941406 Z M 25.5625 -16.667969 L 7.621094 -16.667969 C 8.640625 -21.546875 12.703125 -23.53125 16.71875 -23.53125 C 20.683594 -23.53125 24.597656 -21.597656 25.5625 -16.667969 Z M 25.5625 -16.667969"/></g><g id="j"><path d="M 30.847656 -35.574219 L 25.867188 -35.574219 L 25.867188 -23.9375 C 23.480469 -27.1875 20.023438 -27.949219 16.617188 -27.949219 C 7.316406 -27.949219 2.03125 -21.75 2.03125 -13.875 C 2.03125 -5.691406 7.0625 0.457031 16.667969 0.457031 C 20.125 0.40625 23.886719 -0.710938 25.867188 -3.710938 L 25.867188 0 L 30.847656 0 Z M 25.867188 -13.773438 C 25.867188 -7.164062 21.242188 -3.964844 16.566406 -3.964844 C 10.519531 -3.964844 7.011719 -8.132812 7.011719 -13.773438 C 7.011719 -18.703125 10.519531 -23.582031 16.617188 -23.582031 C 21.242188 -23.582031 25.867188 -20.328125 25.867188 -13.773438 Z M 25.867188 -13.773438"/></g><g id="k"><path d="M 3.507812 -34.558594 C 3.507812 -32.625 5.082031 -31.660156 6.605469 -31.660156 C 8.183594 -31.660156 9.707031 -32.625 9.707031 -34.558594 C 9.707031 -36.488281 8.183594 -37.402344 6.65625 -37.402344 C 5.082031 -37.402344 3.507812 -36.4375 3.507812 -34.558594 Z M 4.117188 -27.796875 L 9.097656 -27.796875 L 9.097656 0 L 4.117188 0 Z M 4.117188 -27.796875"/></g><g id="l"><path d="M 30.746094 -10.46875 L 25.613281 -10.46875 C 24.394531 -6.097656 20.734375 -3.964844 16.972656 -3.964844 C 12.246094 -3.964844 7.570312 -7.164062 7.570312 -13.773438 C 7.570312 -20.328125 12.296875 -23.53125 16.921875 -23.53125 C 20.683594 -23.53125 24.394531 -21.394531 25.613281 -17.023438 L 30.746094 -17.023438 C 29.375 -24.34375 23.125 -27.949219 16.871094 -27.949219 C 9.707031 -27.949219 2.59375 -23.277344 2.59375 -13.773438 C 2.59375 -4.320312 9.65625 0.40625 16.769531 0.40625 C 23.019531 0.40625 29.375 -3.101562 30.746094 -10.46875 Z M 30.746094 -10.46875"/></g><g id="m"><path d="M 8.792969 -24.089844 L 8.792969 -27.492188 L 3.8125 -27.492188 L 3.8125 0 L 8.792969 0 L 8.792969 -14.941406 C 8.792969 -19.71875 11.636719 -23.480469 16.871094 -23.480469 C 22.867188 -23.480469 24.242188 -19.921875 24.242188 -14.738281 L 24.242188 0 L 29.171875 0 L 29.171875 -14.789062 C 29.171875 -22.664062 25.613281 -27.898438 17.226562 -27.898438 C 13.773438 -27.898438 10.824219 -27.035156 8.792969 -24.089844 Z M 8.792969 -24.089844"/></g></defs><path fill="#1075BC" d="M 335.164062 119.058594 L 144.890625 119.058594 C 147.742188 113.332031 178.636719 78.179688 179.570312 77.292969 C 180.503906 76.410156 181.492188 74.613281 183.171875 74.226562 C 183.65625 74.117188 184.121094 74.167969 184.570312 74.375 C 185.015625 74.582031 185.355469 74.90625 185.585938 75.34375 C 186.605469 75.328125 187.613281 75.425781 188.609375 75.632812 C 190.554688 76.019531 196.9375 80.976562 196.9375 80.976562 C 196.9375 80.976562 200.96875 76.761719 203.074219 75.289062 C 204.566406 74.1875 205.984375 72.996094 207.324219 71.714844 L 205.128906 71.929688 C 205.128906 71.929688 212.039062 63.46875 215.425781 58.964844 C 218.8125 54.460938 225.007812 45.246094 225.007812 45.246094 C 225.007812 45.246094 228.078125 40.421875 230.089844 39.558594 C 231.238281 39.046875 232.21875 38.316406 233.035156 37.367188 C 233.140625 37.253906 233.242188 37.132812 233.335938 37.011719 C 233.335938 37.011719 236.863281 37.300781 238.054688 37.875 C 239.246094 38.453125 243.0625 45.007812 244.394531 47.921875 C 246.296875 51.675781 248.578125 55.183594 251.234375 58.445312 C 251.902344 59.285156 252.589844 60.09375 253.289062 60.847656 C 257.144531 65.066406 260.960938 66.433594 262.113281 66.796875 C 263.269531 67.15625 265.53125 70.128906 265.53125 70.128906 C 268 71.519531 270.546875 72.746094 273.171875 73.808594 C 276.632812 75.140625 278.40625 78.652344 278.644531 79.171875 L 278.683594 79.238281 C 279.46875 78.316406 280.132812 77.316406 280.683594 76.238281 C 282.144531 73.5625 283.425781 70.582031 285.273438 70.242188 C 287.886719 69.753906 295.292969 71.324219 296.316406 74.398438 C 297.34375 77.472656 300.667969 83.601562 303.3125 86.640625 C 304.3125 86.640625 306.636719 87.371094 309.878906 89.707031 C 313.117188 92.046875 314.789062 95.597656 319.082031 100.296875 C 323.378906 105 329.128906 111.804688 331.777344 113.796875 L 331.933594 113.921875 C 333.539062 115.300781 334.613281 117.011719 335.164062 119.058594 Z M 335.164062 119.058594"/><path fill="#FFF" d="M 331.914062 113.882812 C 331.539062 113.785156 325.617188 112.140625 324.609375 110.949219 C 323.605469 109.761719 318.285156 103.800781 318.058594 103.539062 C 318.773438 104.695312 319.335938 105.925781 319.75 107.21875 C 317.191406 103.980469 308.183594 95.917969 308.183594 95.917969 L 314.242188 97.28125 C 314.242188 97.28125 308.871094 93.648438 305.035156 92.984375 C 301.203125 92.320312 297.367188 89.917969 297.367188 89.917969 L 302.765625 90.929688 C 302.765625 90.929688 297.398438 86.460938 295.851562 83.613281 C 294.792969 81.746094 293.535156 80.019531 292.078125 78.441406 C 292.195312 78.636719 294.226562 82.03125 294.011719 83.074219 C 293.796875 84.117188 294.699219 85.8125 294.699219 85.8125 C 294.699219 85.8125 291.710938 82.644531 291.28125 81.515625 C 290.851562 80.386719 289.550781 77.988281 288.578125 77.085938 C 287.609375 76.183594 287.277344 74.0625 287.277344 74.0625 L 288.683594 75.902344 C 288.683594 75.902344 289.261719 73.601562 292.324219 74.105469 C 290.988281 73.230469 289.523438 72.820312 287.929688 72.875 C 286.628906 72.875 285.007812 72.445312 283.855469 75.183594 C 282.871094 77.34375 281.757812 79.429688 280.511719 81.449219 L 284.003906 79.609375 C 284.003906 79.609375 279.320312 83.855469 275.785156 87.351562 C 277.292969 86.664062 278.867188 86.222656 280.511719 86.019531 C 280.511719 86.019531 276.726562 88.070312 275.785156 88.675781 C 274.847656 89.285156 275.246094 91.921875 274.601562 93.585938 C 274.066406 94.730469 273.277344 95.65625 272.226562 96.359375 L 277.011719 94.992188 L 268.945312 99.785156 L 268.945312 100.398438 C 268.945312 100.398438 265.414062 101.691406 263.421875 103.605469 C 261.425781 105.519531 254.21875 111.816406 254.21875 111.816406 L 273.78125 106.410156 C 273.78125 106.410156 269.5625 109.363281 268.335938 109.433594 C 267.109375 109.507812 263.507812 111.09375 258.898438 112.179688 C 254.292969 113.265625 251.339844 114.632812 243.625 115.472656 L 252.132812 107.601562 L 257.550781 102.691406 C 259.21875 101.273438 261.109375 100.285156 263.226562 99.722656 C 266.433594 98.960938 268.589844 98.207031 268.589844 98.207031 L 267.042969 97.753906 C 267.042969 97.753906 270.191406 92.707031 270.980469 91.003906 C 271.773438 89.296875 274.96875 84.328125 274.96875 84.328125 L 278.652344 79.023438 L 280.6875 76.089844 C 282.148438 73.417969 283.433594 70.433594 285.277344 70.097656 C 287.894531 69.605469 295.300781 71.175781 296.324219 74.25 C 297.347656 77.324219 300.675781 83.453125 303.320312 86.492188 C 304.320312 86.492188 306.644531 87.222656 309.882812 89.558594 C 313.125 91.898438 314.792969 95.453125 319.089844 100.152344 C 323.382812 104.851562 329.132812 111.65625 331.785156 113.652344 Z M 331.914062 113.882812"/><path fill="#FFF" d="M 275.988281 82.570312 L 270.730469 75.945312 C 270.730469 75.945312 273.183594 77.171875 274.796875 77.851562 C 276.410156 78.535156 277.652344 80.699219 277.652344 80.699219 Z M 275.988281 82.570312"/><path fill="#FFF" d="M 273.761719 83.796875 C 273.761719 83.796875 268.625 75.152344 266.785156 73.316406 C 268.335938 76.472656 269.652344 79.71875 270.742188 83.0625 C 270.503906 82.730469 265.832031 76.128906 263.832031 72.59375 C 261.832031 69.058594 259.941406 66.648438 257.316406 64.960938 C 257.789062 67.078125 259.597656 69.027344 259.769531 69.257812 C 259.585938 69.171875 258.003906 68.347656 255.476562 65.433594 C 253.695312 63.332031 252.261719 61.015625 251.179688 58.480469 C 248.523438 55.21875 246.242188 51.710938 244.339844 47.957031 C 243.007812 45.042969 239.183594 38.488281 238 37.914062 C 236.816406 37.335938 233.28125 37.046875 233.28125 37.046875 C 233.1875 37.171875 233.085938 37.289062 232.980469 37.402344 C 232.980469 37.402344 236.378906 38.6875 237.097656 39.488281 C 237.816406 40.292969 242.007812 48.945312 242.171875 49.308594 L 237.578125 42.914062 L 236.105469 45.109375 L 235.453125 43.3125 C 235.453125 43.3125 235.058594 50.300781 236.316406 52.785156 C 237.390625 54.914062 238.496094 55.664062 238.773438 55.855469 C 238.277344 55.609375 235.582031 54.277344 234.601562 53.265625 C 233.617188 52.253906 229.785156 54.441406 229.441406 54.664062 C 229.769531 54.554688 233.015625 53.546875 233.734375 54.019531 C 234.453125 54.492188 246.699219 66.953125 246.699219 66.953125 L 242.742188 58.273438 C 242.742188 58.273438 248.113281 65.542969 249.664062 67.671875 C 251.21875 69.800781 253.347656 70.371094 254.449219 71.128906 C 255.554688 71.882812 257.335938 75.054688 258.746094 76.785156 C 256.1875 74.550781 252.609375 73.433594 250.816406 73.398438 C 249.027344 73.359375 247.542969 73.21875 247.542969 73.21875 C 247.542969 73.21875 250.53125 74.335938 251.835938 76.207031 C 252.585938 77.242188 253.101562 78.378906 253.382812 79.625 C 253.382812 79.625 250.609375 78.332031 244.308594 79.625 C 249.308594 79.625 253.167969 82.082031 253.671875 82.769531 C 254.175781 83.453125 258.917969 89.148438 259.136719 89.417969 C 258.824219 89.320312 248.816406 85.984375 242.398438 84.742188 C 235.882812 83.484375 232.527344 81.570312 223.308594 82.871094 C 227.621094 83.007812 231.824219 83.765625 235.914062 85.140625 C 228.007812 87.082031 220.421875 89.882812 213.148438 93.535156 C 201.808594 99.3125 197.152344 104.53125 196.953125 104.757812 C 203.007812 100.503906 209.488281 97.046875 216.394531 94.394531 C 226.984375 90.503906 239.367188 87.339844 241.964844 87.339844 C 244.558594 87.339844 266.660156 93.738281 266.660156 93.738281 C 265.296875 92.457031 263.867188 91.253906 262.367188 90.136719 L 260.164062 85.957031 L 266.074219 89.339844 L 258.554688 79.871094 L 269.761719 87.847656 Z M 251.019531 62.492188 C 251.019531 62.492188 258.382812 69.085938 262.339844 73.109375 C 256.125 71.355469 252.101562 65.464844 251.019531 62.492188 Z M 251.019531 62.492188"/><path fill="#FFF" d="M 167.042969 114.554688 C 171.949219 112.246094 179.066406 104.613281 181.953125 102.238281 C 184.835938 99.863281 190.589844 91.863281 193.765625 88.910156 C 195.378906 87.320312 197.179688 85.976562 199.164062 84.878906 C 197.8125 89.222656 195.917969 93.3125 193.476562 97.152344 C 200.605469 91.628906 202.550781 82.171875 202.550781 82.171875 C 202.550781 82.171875 209.105469 78.523438 212.996094 75.871094 C 216.886719 73.21875 221.203125 69.734375 225.671875 68.742188 C 230.140625 67.746094 238.347656 67.296875 244.621094 69.53125 C 240.226562 66.507812 231.734375 65.136719 224.59375 67.585938 L 231.195312 63.179688 C 231.195312 63.179688 225.199219 65.070312 221.417969 68.089844 C 217.640625 71.109375 205.234375 78.644531 205.234375 78.644531 C 205.234375 78.644531 213.070312 71.570312 214.472656 70 C 215.878906 68.425781 215.699219 66.058594 218.253906 61.734375 C 219.726562 59.1875 221.53125 56.902344 223.660156 54.871094 L 219.976562 56.386719 C 219.976562 56.386719 223.046875 52.554688 226.726562 50.933594 C 230.410156 49.3125 233.476562 45.582031 233.476562 45.582031 L 227.808594 48.878906 C 227.808594 48.878906 230.023438 45.964844 230.832031 43.421875 C 229.453125 44.390625 227.539062 46.042969 227.539062 46.042969 C 227.539062 46.042969 229.613281 41.132812 231.476562 39.453125 L 229.113281 40.476562 L 224.542969 45.945312 L 217.867188 55.601562 L 206.40625 70.328125 C 206.40625 70.328125 212.878906 68.027344 215.480469 65.023438 C 212.921875 69.421875 208.730469 71.6875 206.890625 73.203125 C 204.957031 74.601562 202.941406 75.867188 200.839844 76.992188 L 191.78125 86.5 L 180.332031 99.382812 C 180.332031 99.382812 167.378906 113.109375 167.042969 114.554688 Z M 167.042969 114.554688"/><path fill="#FFF" d="M 148.128906 115.546875 C 151.367188 112.90625 154.390625 110.042969 157.203125 106.957031 C 159.207031 104.6875 162.324219 100.058594 165.421875 99.464844 C 164.359375 99.386719 163.308594 99.457031 162.265625 99.679688 C 164.445312 98.367188 169.628906 95.5 171.171875 94.308594 C 172.710938 93.121094 177.601562 89.964844 177.601562 89.964844 C 177.601562 89.964844 169.335938 93.179688 167.335938 94.746094 C 170.441406 91.394531 173.847656 90.125 174.902344 89.222656 C 175.957031 88.320312 180.953125 81.496094 181.683594 80.6875 C 182.414062 79.878906 182.730469 80.480469 183.40625 80.976562 C 184.082031 81.472656 187.921875 85.355469 187.921875 85.355469 C 187.921875 85.355469 186.652344 82.535156 185.574219 81.589844 C 184.492188 80.644531 184.4375 80.023438 184.4375 80.023438 C 184.4375 80.023438 188.160156 82.128906 189.105469 83.210938 C 190.050781 84.289062 190.457031 84.183594 190.457031 84.183594 L 190.835938 82.957031 L 191.125 87.191406 L 196.648438 81.277344 L 195.667969 80.023438 C 195.667969 80.023438 190.015625 75.386719 187.117188 75.453125 L 190.800781 79.234375 C 190.800781 79.234375 185.890625 77.066406 185.019531 75.988281 C 184.148438 74.90625 184.296875 74.292969 184.296875 74.292969 C 184.296875 74.292969 181.839844 74.90625 181.320312 78.394531 C 181.046875 77.558594 180.992188 76.714844 181.160156 75.851562 L 173.632812 84.234375 L 177.808594 81.9375 C 176.496094 83.675781 175.027344 85.269531 173.40625 86.71875 C 171.164062 88.617188 167.269531 92.09375 167.269531 92.09375 L 159.09375 100.367188 L 150.503906 111.355469 Z M 148.128906 115.546875"/><path fill="#1075BC" d="M 335.164062 119.886719 L 144.890625 119.886719 C 144.746094 119.886719 144.613281 119.851562 144.488281 119.78125 C 144.363281 119.710938 144.261719 119.617188 144.183594 119.492188 C 144.109375 119.371094 144.070312 119.238281 144.0625 119.097656 C 144.054688 118.953125 144.082031 118.816406 144.148438 118.6875 C 147.128906 112.664062 178.730469 76.9375 178.996094 76.679688 C 179.257812 76.421875 179.453125 76.183594 179.707031 75.882812 C 180.496094 74.9375 181.480469 73.765625 182.996094 73.429688 C 183.570312 73.289062 184.136719 73.320312 184.691406 73.519531 C 185.25 73.71875 185.707031 74.054688 186.0625 74.527344 C 186.980469 74.554688 187.890625 74.65625 188.792969 74.828125 C 190.578125 75.160156 195.070312 78.507812 196.886719 79.867188 C 198.671875 77.980469 200.578125 76.226562 202.605469 74.605469 C 203.421875 74.03125 204.261719 73.378906 204.96875 72.765625 C 204.714844 72.714844 204.53125 72.578125 204.410156 72.347656 C 204.234375 72.023438 204.265625 71.71875 204.496094 71.433594 C 204.5625 71.347656 211.441406 62.929688 214.773438 58.492188 C 218.105469 54.058594 224.234375 44.882812 224.304688 44.773438 C 224.617188 44.277344 227.550781 39.730469 229.742188 38.789062 C 230.769531 38.324219 231.652344 37.664062 232.386719 36.808594 C 232.542969 36.628906 232.628906 36.519531 232.644531 36.507812 C 232.824219 36.257812 233.070312 36.144531 233.378906 36.164062 C 233.753906 36.195312 237.097656 36.484375 238.390625 37.113281 C 240.019531 37.898438 244.074219 45.261719 245.140625 47.546875 C 247.023438 51.234375 249.273438 54.683594 251.890625 57.890625 C 252.566406 58.738281 253.242188 59.535156 253.910156 60.261719 C 257.46875 64.144531 261.011719 65.550781 262.371094 65.972656 C 263.597656 66.359375 265.441406 68.585938 266.097656 69.457031 C 268.476562 70.789062 270.929688 71.964844 273.460938 72.980469 C 276.195312 74.03125 277.945312 76.320312 278.800781 77.691406 C 279.214844 77.078125 279.597656 76.445312 279.945312 75.789062 L 280.558594 74.601562 C 281.878906 72.097656 283.125 69.734375 285.09375 69.371094 C 287.851562 68.863281 295.863281 70.445312 297.101562 74.078125 C 298.753906 78.289062 300.957031 82.1875 303.710938 85.773438 C 305.035156 85.910156 307.34375 86.800781 310.363281 88.964844 C 312.382812 90.40625 313.828125 92.320312 315.503906 94.53125 C 316.652344 96.050781 317.960938 97.769531 319.679688 99.667969 C 320.714844 100.808594 321.835938 102.066406 322.980469 103.347656 C 326.421875 107.214844 330.34375 111.59375 332.261719 113.0625 L 332.460938 113.226562 C 334.21875 114.726562 335.390625 116.597656 335.96875 118.835938 C 336.027344 119.09375 335.976562 119.328125 335.808594 119.535156 C 335.65625 119.761719 335.441406 119.878906 335.164062 119.886719 Z M 146.34375 118.230469 L 334.019531 118.230469 C 333.460938 116.773438 332.589844 115.546875 331.398438 114.546875 L 331.25 114.425781 C 329.1875 112.871094 325.402344 108.613281 321.746094 104.503906 C 320.605469 103.214844 319.480469 101.957031 318.449219 100.820312 C 316.683594 98.867188 315.351562 97.136719 314.1875 95.566406 C 312.523438 93.378906 311.210938 91.648438 309.398438 90.347656 C 306.191406 88.042969 304.074219 87.449219 303.367188 87.449219 L 303.3125 87.449219 C 303.066406 87.445312 302.859375 87.347656 302.699219 87.160156 C 300.03125 84.09375 296.660156 77.902344 295.542969 74.648438 C 294.703125 72.195312 287.90625 70.574219 285.40625 71.035156 C 284.230469 71.257812 283.117188 73.367188 282.039062 75.410156 C 281.832031 75.808594 281.617188 76.21875 281.394531 76.636719 C 280.804688 77.757812 280.09375 78.792969 279.265625 79.75 C 279.070312 79.960938 278.832031 80.050781 278.546875 80.011719 C 278.265625 79.96875 278.058594 79.820312 277.933594 79.566406 L 277.898438 79.492188 C 277.710938 79.097656 276.054688 75.773438 272.859375 74.53125 C 270.195312 73.472656 267.613281 72.246094 265.109375 70.851562 C 265.011719 70.796875 264.929688 70.722656 264.863281 70.628906 C 263.839844 69.300781 262.410156 67.753906 261.851562 67.5625 C 258.234375 66.320312 255.167969 64.261719 252.648438 61.390625 C 251.953125 60.640625 251.246094 59.8125 250.554688 58.933594 C 247.859375 55.628906 245.542969 52.074219 243.613281 48.269531 C 242.066406 44.878906 238.507812 39.109375 237.664062 38.617188 C 236.355469 38.210938 235.015625 37.960938 233.648438 37.875 C 233.632812 37.890625 233.617188 37.90625 233.605469 37.925781 C 232.707031 38.96875 231.625 39.769531 230.367188 40.332031 C 229.070312 40.886719 226.796875 43.917969 225.664062 45.699219 C 225.59375 45.808594 219.40625 55.007812 216.042969 59.476562 C 213.589844 62.78125 209.136719 68.269531 206.976562 70.929688 L 207.203125 70.929688 C 207.375 70.917969 207.535156 70.953125 207.683594 71.035156 C 207.832031 71.121094 207.945312 71.242188 208.019531 71.394531 C 208.09375 71.550781 208.117188 71.710938 208.09375 71.882812 C 208.066406 72.050781 207.996094 72.199219 207.878906 72.324219 C 206.507812 73.636719 205.054688 74.851562 203.527344 75.976562 C 201.527344 77.386719 197.570312 81.496094 197.527344 81.558594 C 197.378906 81.710938 197.199219 81.796875 196.988281 81.8125 C 196.777344 81.828125 196.585938 81.769531 196.421875 81.640625 C 194.015625 79.796875 189.726562 76.730469 188.445312 76.472656 C 187.511719 76.28125 186.570312 76.1875 185.621094 76.195312 C 185.253906 76.21875 184.988281 76.0625 184.824219 75.730469 C 184.683594 75.460938 184.472656 75.261719 184.195312 75.136719 C 183.914062 75.011719 183.628906 74.988281 183.332031 75.0625 C 182.375 75.261719 181.65625 76.117188 180.964844 76.945312 C 180.703125 77.269531 180.429688 77.578125 180.136719 77.871094 C 179.890625 78.121094 151.8125 109.933594 146.34375 118.230469 Z M 146.34375 118.230469"/><path fill="#1075BC" d="M 162.683594 119.632812 L 161.457031 118.515625 C 161.75 118.191406 191.019531 85.921875 196.335938 80.429688 L 197.527344 81.589844 C 192.230469 87.039062 162.980469 119.289062 162.683594 119.632812 Z M 162.683594 119.632812"/><path fill="#1075BC" d="M 233.300781 119.871094 L 233.03125 118.242188 C 244.160156 116.398438 249.660156 109.484375 253.671875 104.445312 L 254.132812 103.882812 C 257.28125 99.9375 261.710938 98.398438 263.820312 97.855469 C 263.855469 97.820312 267.503906 94.019531 268.871094 91.417969 C 269.910156 89.660156 271.082031 87.996094 272.386719 86.425781 C 273.945312 84.417969 275.878906 81.914062 277.953125 78.765625 L 279.332031 79.679688 C 277.226562 82.878906 275.269531 85.40625 273.695312 87.4375 C 272.453125 88.933594 271.332031 90.515625 270.335938 92.1875 C 269.042969 94.640625 266.042969 97.90625 265.226562 98.78125 L 265.257812 99.25 C 265.195312 99.25 259.179688 100.210938 255.40625 104.925781 L 254.953125 105.496094 C 251.027344 110.429688 245.0625 117.914062 233.300781 119.871094 Z M 233.300781 119.871094"/><path fill="#FFF" d="M 289.488281 94.476562 C 294.726562 92.585938 296.457031 95.339844 296.457031 95.339844 Z M 289.488281 94.476562"/><path fill="#FFF" d="M 294.425781 104.519531 C 300.375 102.035156 303.503906 101.605469 306.152344 102.035156 C 308.804688 102.464844 315.554688 104.519531 315.554688 104.519531 L 312.804688 104.519531 L 319.722656 110.140625 C 319.722656 110.140625 313.773438 106.902344 312.101562 106.902344 C 309.34375 104.203125 308.105469 103.496094 308.105469 103.496094 C 303.503906 103.285156 298.945312 103.625 294.425781 104.519531 Z M 294.425781 104.519531"/><g fill="#1075BC"><use x="26.566" y="219.102" xmlns:xlink="http://www.w3.org/1999/xlink" xlink:href="#a" xlink:type="simple" xlink:actuate="onLoad" xlink:show="embed"/></g><g fill="#1075BC"><use x="56.8" y="219.102" xmlns:xlink="http://www.w3.org/1999/xlink" xlink:href="#b" xlink:type="simple" xlink:actuate="onLoad" xlink:show="embed"/></g><g fill="#1075BC"><use x="91.81" y="219.102" xmlns:xlink="http://www.w3.org/1999/xlink" xlink:href="#c" xlink:type="simple" xlink:actuate="onLoad" xlink:show="embed"/></g><g fill="#1075BC"><use x="127.073" y="219.102" xmlns:xlink="http://www.w3.org/1999/xlink" xlink:href="#d" xlink:type="simple" xlink:actuate="onLoad" xlink:show="embed"/></g><g fill="#1075BC"><use x="148.415" y="219.102" xmlns:xlink="http://www.w3.org/1999/xlink" xlink:href="#e" xlink:type="simple" xlink:actuate="onLoad" xlink:show="embed"/></g><g fill="#1075BC"><use x="165.894" y="219.102" xmlns:xlink="http://www.w3.org/1999/xlink" xlink:href="#f" xlink:type="simple" xlink:actuate="onLoad" xlink:show="embed"/></g><g fill="#1075BC"><use x="192.368" y="219.102" xmlns:xlink="http://www.w3.org/1999/xlink" xlink:href="#g" xlink:type="simple" xlink:actuate="onLoad" xlink:show="embed"/></g><g fill="#1075BC"><use x="205.02" y="219.102" xmlns:xlink="http://www.w3.org/1999/xlink" xlink:href="#h" xlink:type="simple" xlink:actuate="onLoad" xlink:show="embed"/></g><g fill="#1075BC"><use x="245.416" y="219.102" xmlns:xlink="http://www.w3.org/1999/xlink" xlink:href="#i" xlink:type="simple" xlink:actuate="onLoad" xlink:show="embed"/></g><g fill="#1075BC"><use x="278.952" y="219.102" xmlns:xlink="http://www.w3.org/1999/xlink" xlink:href="#j" xlink:type="simple" xlink:actuate="onLoad" xlink:show="embed"/></g><g fill="#1075BC"><use x="313.708" y="219.102" xmlns:xlink="http://www.w3.org/1999/xlink" xlink:href="#k" xlink:type="simple" xlink:actuate="onLoad" xlink:show="embed"/></g><g fill="#1075BC"><use x="327.376" y="219.102" xmlns:xlink="http://www.w3.org/1999/xlink" xlink:href="#l" xlink:type="simple" xlink:actuate="onLoad" xlink:show="embed"/></g><g fill="#1075BC"><use x="360.658" y="219.102" xmlns:xlink="http://www.w3.org/1999/xlink" xlink:href="#k" xlink:type="simple" xlink:actuate="onLoad" xlink:show="embed"/></g><g fill="#1075BC"><use x="374.327" y="219.102" xmlns:xlink="http://www.w3.org/1999/xlink" xlink:href="#m" xlink:type="simple" xlink:actuate="onLoad" xlink:show="embed"/></g><g fill="#1075BC"><use x="407.254" y="219.102" xmlns:xlink="http://www.w3.org/1999/xlink" xlink:href="#i" xlink:type="simple" xlink:actuate="onLoad" xlink:show="embed"/></g><g><use x="440.789" y="219.102" xmlns:xlink="http://www.w3.org/1999/xlink" xlink:href="#g" xlink:type="simple" xlink:actuate="onLoad" xlink:show="embed"/></g><g><use x="50.09" y="260.482" xmlns:xlink="http://www.w3.org/1999/xlink" xlink:href="#n" xlink:type="simple" xlink:actuate="onLoad" xlink:show="embed"/></g><g><use x="66.579" y="260.482" xmlns:xlink="http://www.w3.org/1999/xlink" xlink:href="#o" xlink:type="simple" xlink:actuate="onLoad" xlink:show="embed"/></g><g><use x="76.582" y="260.482" xmlns:xlink="http://www.w3.org/1999/xlink" xlink:href="#p" xlink:type="simple" xlink:actuate="onLoad" xlink:show="embed"/></g><g><use x="84.897" y="260.482" xmlns:xlink="http://www.w3.org/1999/xlink" xlink:href="#q" xlink:type="simple" xlink:actuate="onLoad" xlink:show="embed"/></g><g><use x="92.268" y="260.482" xmlns:xlink="http://www.w3.org/1999/xlink" xlink:href="#r" xlink:type="simple" xlink:actuate="onLoad" xlink:show="embed"/></g><g><use x="108.857" y="260.482" xmlns:xlink="http://www.w3.org/1999/xlink" xlink:href="#s" xlink:type="simple" xlink:actuate="onLoad" xlink:show="embed"/></g><g><use x="116.595" y="260.482" xmlns:xlink="http://www.w3.org/1999/xlink" xlink:href="#t" xlink:type="simple" xlink:actuate="onLoad" xlink:show="embed"/></g><g><use x="130.496" y="260.482" xmlns:xlink="http://www.w3.org/1999/xlink" xlink:href="#u" xlink:type="simple" xlink:actuate="onLoad" xlink:show="embed"/></g><g><use x="143.62" y="260.482" xmlns:xlink="http://www.w3.org/1999/xlink" xlink:href="#v" xlink:type="simple" xlink:actuate="onLoad" xlink:show="embed"/></g><g><use x="158.143" y="260.482" xmlns:xlink="http://www.w3.org/1999/xlink" xlink:href="#w" xlink:type="simple" xlink:actuate="onLoad" xlink:show="embed"/></g><g><use x="172.145" y="260.482" xmlns:xlink="http://www.w3.org/1999/xlink" xlink:href="#x" xlink:type="simple" xlink:actuate="onLoad" xlink:show="embed"/></g><g><use x="186.59" y="260.482" xmlns:xlink="http://www.w3.org/1999/xlink" xlink:href="#q" xlink:type="simple" xlink:actuate="onLoad" xlink:show="embed"/></g><g><use x="193.961" y="260.482" xmlns:xlink="http://www.w3.org/1999/xlink" xlink:href="#t" xlink:type="simple" xlink:actuate="onLoad" xlink:show="embed"/></g><g><use x="207.862" y="260.482" xmlns:xlink="http://www.w3.org/1999/xlink" xlink:href="#x" xlink:type="simple" xlink:actuate="onLoad" xlink:show="embed"/></g><g><use x="222.308" y="260.482" xmlns:xlink="http://www.w3.org/1999/xlink" xlink:href="#v" xlink:type="simple" xlink:actuate="onLoad" xlink:show="embed"/></g><g><use x="236.831" y="260.482" xmlns:xlink="http://www.w3.org/1999/xlink" xlink:href="#q" xlink:type="simple" xlink:actuate="onLoad" xlink:show="embed"/></g><g><use x="244.202" y="260.482" xmlns:xlink="http://www.w3.org/1999/xlink" xlink:href="#n" xlink:type="simple" xlink:actuate="onLoad" xlink:show="embed"/></g><g><use x="260.691" y="260.482" xmlns:xlink="http://www.w3.org/1999/xlink" xlink:href="#o" xlink:type="simple" xlink:actuate="onLoad" xlink:show="embed"/></g><g><use x="270.694" y="260.482" xmlns:xlink="http://www.w3.org/1999/xlink" xlink:href="#p" xlink:type="simple" xlink:actuate="onLoad" xlink:show="embed"/></g><g><use x="279.009" y="260.482" xmlns:xlink="http://www.w3.org/1999/xlink" xlink:href="#q" xlink:type="simple" xlink:actuate="onLoad" xlink:show="embed"/></g><g><use x="286.38" y="260.482" xmlns:xlink="http://www.w3.org/1999/xlink" xlink:href="#y" xlink:type="simple" xlink:actuate="onLoad" xlink:show="embed"/></g><g><use x="302.525" y="260.482" xmlns:xlink="http://www.w3.org/1999/xlink" xlink:href="#o" xlink:type="simple" xlink:actuate="onLoad" xlink:show="embed"/></g><g><use x="312.528" y="260.482" xmlns:xlink="http://www.w3.org/1999/xlink" xlink:href="#t" xlink:type="simple" xlink:actuate="onLoad" xlink:show="embed"/></g><g><use x="326.429" y="260.482" xmlns:xlink="http://www.w3.org/1999/xlink" xlink:href="#z" xlink:type="simple" xlink:actuate="onLoad" xlink:show="embed"/></g><g><use x="339.831" y="260.482" xmlns:xlink="http://www.w3.org/1999/xlink" xlink:href="#z" xlink:type="simple" xlink:actuate="onLoad" xlink:show="embed"/></g><g><use x="353.232" y="260.482" xmlns:xlink="http://www.w3.org/1999/xlink" xlink:href="#A" xlink:type="simple" xlink:actuate="onLoad" xlink:show="embed"/></g><g><use x="360.97" y="260.482" xmlns:xlink="http://www.w3.org/1999/xlink" xlink:href="#B" xlink:type="simple" xlink:actuate="onLoad" xlink:show="embed"/></g><g><use x="375.537" y="260.482" xmlns:xlink="http://www.w3.org/1999/xlink" xlink:href="#C" xlink:type="simple" xlink:actuate="onLoad" xlink:show="embed"/></g><g><use x="389.972" y="260.482" xmlns:xlink="http://www.w3.org/1999/xlink" xlink:href="#D" xlink:type="simple" xlink:actuate="onLoad" xlink:show="embed"/></g><g><use x="403.829" y="260.482" xmlns:xlink="http://www.w3.org/1999/xlink" xlink:href="#B" xlink:type="simple" xlink:actuate="onLoad" xlink:show="embed"/></g><g><use x="418.397" y="260.482" xmlns:xlink="http://www.w3.org/1999/xlink" xlink:href="#E" xlink:type="simple" xlink:actuate="onLoad" xlink:show="embed"/></g><g><use x="128.473" y="153.231" xmlns:xlink="http://www.w3.org/1999/xlink" xlink:href="#F" xlink:type="simple" xlink:actuate="onLoad" xlink:show="embed"/></g><g><use x="148.655" y="153.231" xmlns:xlink="http://www.w3.org/1999/xlink" xlink:href="#G" xlink:type="simple" xlink:actuate="onLoad" xlink:show="embed"/></g><g><use x="166.255" y="153.231" xmlns:xlink="http://www.w3.org/1999/xlink" xlink:href="#H" xlink:type="simple" xlink:actuate="onLoad" xlink:show="embed"/></g><g><use x="187.308" y="153.231" xmlns:xlink="http://www.w3.org/1999/xlink" xlink:href="#I" xlink:type="simple" xlink:actuate="onLoad" xlink:show="embed"/></g><g><use x="207.169" y="153.231" xmlns:xlink="http://www.w3.org/1999/xlink" xlink:href="#J" xlink:type="simple" xlink:actuate="onLoad" xlink:show="embed"/></g><g><use x="214.961" y="153.231" xmlns:xlink="http://www.w3.org/1999/xlink" xlink:href="#K" xlink:type="simple" xlink:actuate="onLoad" xlink:show="embed"/></g><g><use x="225.533" y="153.231" xmlns:xlink="http://www.w3.org/1999/xlink" xlink:href="#L" xlink:type="simple" xlink:actuate="onLoad" xlink:show="embed"/></g><g><use x="243.225" y="153.231" xmlns:xlink="http://www.w3.org/1999/xlink" xlink:href="#J" xlink:type="simple" xlink:actuate="onLoad" xlink:show="embed"/></g><g><use x="251.016" y="153.231" xmlns:xlink="http://www.w3.org/1999/xlink" xlink:href="#M" xlink:type="simple" xlink:actuate="onLoad" xlink:show="embed"/></g><g><use x="270.251" y="153.231" xmlns:xlink="http://www.w3.org/1999/xlink" xlink:href="#N" xlink:type="simple" xlink:actuate="onLoad" xlink:show="embed"/></g><g><use x="292.358" y="153.231" xmlns:xlink="http://www.w3.org/1999/xlink" xlink:href="#O" xlink:type="simple" xlink:actuate="onLoad" xlink:show="embed"/></g><g><use x="313.961" y="153.231" xmlns:xlink="http://www.w3.org/1999/xlink" xlink:href="#P" xlink:type="simple" xlink:actuate="onLoad" xlink:show="embed"/></g><g><use x="333.929" y="153.231" xmlns:xlink="http://www.w3.org/1999/xlink" xlink:href="#G" xlink:type="simple" xlink:actuate="onLoad" xlink:show="embed"/></g></svg>